<svg width="414" height="515" viewBox="0 0 414 515" fill="none" xmlns="http://www.w3.org/2000/svg">
<circle cx="207" cy="269" r="246" fill="#9AA2FD"/>
<circle cx="207" cy="269" r="246" fill="#949DFF"/>
<circle cx="207" cy="269" r="211" fill="#9AA2FD"/>
<circle cx="207" cy="269" r="211" fill="#99A1FF"/>
<circle cx="207" cy="269" r="177" fill="#9AA2FD"/>
<circle cx="207" cy="269" r="177" fill="#9EA6FF"/>
<path d="M296.4 78C294.829 69.7727 286.145 65.5733 282 64.5021C291.949 61.931 296.618 69.8584 297.709 74.1434C308.705 67.973 315.818 72.0009 318 74.7862C309.622 72.2152 300.109 75.8575 296.4 78Z" fill="#B4BAFF"/>
<path d="M61.8 94C60.84 89.2987 55.5333 86.899 53 86.2869C59.08 84.8177 61.9333 89.3477 62.6 91.7963C69.32 88.2703 73.6667 90.572 75 92.1635C69.88 90.6944 64.0667 92.7757 61.8 94Z" fill="#B4BAFF"/>
<circle cx="207" cy="269" r="142" fill="#E6DC00"/>
<path d="M345.248 115.025C297.249 101.525 304.248 142.025 314.248 142.025C318.357 142.025 326.873 143.025 337.249 143.025H368.749C408.748 143.025 420.249 140.358 420.749 139.525C424.249 113.025 403.082 115.525 391.749 118.525C393.582 108.692 391.649 88.8252 369.248 88.0252C346.848 87.2252 343.915 105.692 345.248 115.025Z" fill="#B4BAFF"/>
<path d="M7.75573 39.7874C-13.2717 33.8992 -10.2054 51.5638 -5.8247 51.5638C-4.0249 51.5638 -0.294134 52 4.25144 52H18.0509C35.5738 52 40.6117 50.8369 40.831 50.4734C42.3643 38.9151 33.0916 40.0055 28.1267 41.314C28.9299 37.025 28.0828 28.3599 18.2696 28.011C8.45638 27.662 7.17151 35.7165 7.75573 39.7874Z" fill="#A6ADFB"/>
<circle cx="39" cy="17" r="6" fill="#A6ADFB"/>
<circle cx="3" cy="3" r="3" transform="matrix(1 0 0 -1 27 6)" fill="#A6ADFB"/>
</svg>
